<svg xmlns="http://www.w3.org/2000/svg"  viewBox="0 0 50 50" width="50px" height="50px"><path d="M 25 1 C 14.519423 1 6 9.5194232 6 20 C 6 26.111111 7 28.222222 7 31 C 7 34.666667 5.0722656 39.628906 5.0722656 39.628906 A 1.0001 1.0001 0 0 0 5.2246094 40.630859 C 5.2246094 40.630859 5.4188961 40.857313 5.7148438 41.089844 C 6.0107913 41.322374 6.4558899 41.620934 7.1015625 41.949219 C 8.331647 42.574641 10.32455 43.302679 13.390625 43.892578 C 14.245183 47.243781 16.410156 48.828125 16.410156 48.828125 A 1.0001 1.0001 0 0 0 17.224609 48.966797 C 17.224609 48.966797 20.97134 48.024727 23.476562 45 L 26.353516 45 C 27.166998 46.522444 28.688949 47.440112 29.998047 48.035156 C 31.488194 48.712496 32.832031 48.980469 32.832031 48.980469 A 1.0001 1.0001 0 0 0 33.589844 48.828125 C 33.589844 48.828125 35.754733 47.243467 36.609375 43.892578 C 39.67545 43.302679 41.668351 42.574641 42.898438 41.949219 C 43.544109 41.620934 43.989209 41.322374 44.285156 41.089844 C 44.581104 40.857313 44.775391 40.630859 44.775391 40.630859 A 1.0001 1.0001 0 0 0 44.927734 39.628906 C 44.927734 39.628906 43 34.666667 43 31 C 43 28.222222 44 26.111111 44 20 C 44 9.5194232 35.480577 1 25 1 z M 25 3 C 34.399423 3 42 10.600577 42 20 C 42 25.888889 41 27.777778 41 31 C 41 31.806294 41.074452 32.609091 41.179688 33.390625 C 41.074964 33.488709 40.795021 33.730985 39.980469 34.177734 C 39.144188 34.636401 37.827589 35.20318 35.974609 35.712891 C 35.949839 35.657502 35.904297 35.552734 35.904297 35.552734 A 1.0001 1.0001 0 0 0 35.009766 35 C 35.009766 35 33.205336 34.996 31.224609 35.394531 C 30.234246 35.5938 29.18738 35.890418 28.253906 36.380859 C 27.907291 36.562969 27.580316 36.788577 27.273438 37.039062 A 1.0001 1.0001 0 0 0 27 37 L 23 37 A 1.0001 1.0001 0 0 0 22.738281 37.035156 C 22.434378 36.786089 22.110844 36.561737 21.767578 36.380859 C 20.834982 35.889445 19.788464 35.593771 18.794922 35.394531 C 16.807838 34.996052 14.990234 35 14.990234 35 A 1.0001 1.0001 0 0 0 14.095703 35.552734 C 14.095703 35.552734 14.050108 35.657828 14.025391 35.712891 C 12.172411 35.20318 10.855812 34.636401 10.019531 34.177734 C 9.204979 33.730985 8.9250363 33.488709 8.8203125 33.390625 C 8.9255478 32.609091 9 31.806294 9 31 C 9 27.777778 8 25.888889 8 20 C 8 10.600577 15.600577 3 25 3 z M 33 10 C 30.250421 10 28 12.250421 28 15 C 28 17.749579 30.250421 20 33 20 C 35.749579 20 38 17.749579 38 15 C 38 12.250421 35.749579 10 33 10 z M 16 11 C 13.250421 11 11 13.250421 11 16 C 11 18.749579 13.250421 21 16 21 C 18.749579 21 21 18.749579 21 16 C 21 13.250421 18.749579 11 16 11 z M 33 12 C 34.668699 12 36 13.331301 36 15 C 36 16.668699 34.668699 18 33 18 C 31.331301 18 30 16.668699 30 15 C 30 13.331301 31.331301 12 33 12 z M 16 13 C 17.668699 13 19 14.331301 19 16 C 19 17.668699 17.668699 19 16 19 C 14.331301 19 13 17.668699 13 16 C 13 14.331301 14.331301 13 16 13 z M 34 14 A 1 1 0 0 0 33 15 A 1 1 0 0 0 34 16 A 1 1 0 0 0 35 15 A 1 1 0 0 0 34 14 z M 15 15 A 1 1 0 0 0 14 16 A 1 1 0 0 0 15 17 A 1 1 0 0 0 16 16 A 1 1 0 0 0 15 15 z M 25 18 C 22.802706 18 21 19.802706 21 22 C 21 24.197294 22.802706 26 25 26 C 27.197294 26 29 24.197294 29 22 C 29 19.802706 27.197294 18 25 18 z M 25 20 C 25.762001 20 26.40795 20.416862 26.746094 21.033203 A 0.99900001 0.99900001 0 0 0 26 21.998047 A 0.99900001 0.99900001 0 0 0 26.746094 22.964844 C 26.40819 23.582024 25.762625 24 25 24 C 24.237999 24 23.59205 23.583138 23.253906 22.966797 A 1 1 0 0 0 24 22 A 1 1 0 0 0 23.253906 21.033203 C 23.59205 20.416862 24.237999 20 25 20 z M 16.021484 23 A 1.0001 1.0001 0 0 0 14.994141 24 C 14.994141 24 14.981872 26.45872 16.226562 28.947266 C 17.471251 31.435811 20.163325 34 24.998047 34 C 29.317403 34 31.949687 31.433365 33.324219 28.990234 C 34.698751 26.547104 34.992188 24.125 34.992188 24.125 A 1.0001 1.0001 0 0 0 33.162109 23.455078 C 33.162109 23.455078 30.258319 28 24 28 C 18.965382 28 16.898436 23.570312 16.898438 23.570312 A 1.0001 1.0001 0 0 0 16.021484 23 z M 31.806641 27.455078 C 31.709911 27.654582 31.695162 27.808685 31.582031 28.009766 C 30.424813 30.066635 28.555691 32 24.998047 32 C 20.829769 32 19.021687 30.064189 18.015625 28.052734 C 17.949862 27.921252 17.955993 27.820612 17.898438 27.689453 C 19.33865 28.89101 21.275214 30 24 30 C 27.446145 30 30.006629 28.749287 31.806641 27.455078 z M 8.4277344 35.552734 C 8.6191728 35.674698 8.8183328 35.797913 9.0585938 35.929688 C 10.023929 36.459136 11.457114 37.073695 13.408203 37.617188 C 13.189118 38.511111 13 39.657832 13 41 C 13 41.270737 13.02272 41.521693 13.041016 41.775391 C 10.561926 41.245939 8.9442994 40.642162 8.0078125 40.166016 C 7.5808889 39.948951 7.3692145 39.792057 7.171875 39.650391 C 7.394059 39.079015 7.9780056 37.511139 8.4277344 35.552734 z M 41.572266 35.552734 C 42.021994 37.511139 42.605941 39.079015 42.828125 39.650391 C 42.630785 39.792057 42.419109 39.948951 41.992188 40.166016 C 41.055701 40.642162 39.438074 41.245939 36.958984 41.775391 C 36.977362 41.521529 37 41.270963 37 41 C 37 39.657832 36.810882 38.511109 36.591797 37.617188 C 38.542886 37.073695 39.976071 36.459136 40.941406 35.929688 C 41.181667 35.797914 41.380827 35.674698 41.572266 35.552734 z M 15.65625 37.068359 C 16.129355 37.080149 16.989769 37.072559 18.400391 37.355469 C 19.276849 37.531229 20.167282 37.798055 20.835938 38.150391 C 21.47363 38.486411 21.834037 38.87471 22 39.279297 L 22 43.601562 C 20.250289 45.774291 17.845767 46.630332 17.193359 46.837891 C 16.760838 46.491382 15.688439 45.514734 15.191406 42.988281 L 15.191406 42.986328 A 1.0001 1.0001 0 0 0 15.191406 42.984375 C 15.074171 42.398294 15 41.733333 15 41 C 15 39.407907 15.307465 38.118603 15.5625 37.326172 A 1.0001 1.0001 0 0 0 15.566406 37.310547 C 15.617216 37.142882 15.6145 37.185208 15.65625 37.068359 z M 34.345703 37.070312 C 34.387153 37.186501 34.383284 37.144512 34.433594 37.310547 A 1.0001 1.0001 0 0 0 34.4375 37.326172 C 34.692542 38.118598 35 39.407907 35 41 C 35 41.733333 34.92583 42.3982 34.808594 42.984375 A 1.0001 1.0001 0 0 0 34.808594 42.986328 A 1.0001 1.0001 0 0 0 34.808594 42.988281 C 34.301523 45.565757 33.181908 46.550539 32.775391 46.869141 C 32.456512 46.795056 31.849361 46.67993 30.826172 46.214844 C 29.598358 45.656747 28.410919 44.774763 28 43.740234 L 28 39.287109 C 28.176672 38.877596 28.546918 38.485922 29.185547 38.150391 C 29.85801 37.797082 30.745754 37.5312 31.619141 37.355469 C 33.023767 37.072848 33.875185 37.082141 34.345703 37.070312 z M 24 39 L 26 39 L 26 43 L 24 43 L 24 39 z"/></svg>